<svg aria-hidden="true" style="position: absolute; width: 0; height: 0; overflow: hidden;" version="1.1" xmlns="http://www.w3.org/2000/svg" xmlns:xlink="http://www.w3.org/1999/xlink">
<defs>
<symbol id="icon-abil" viewBox="0 0 32 32">
<title>abil</title>
<path d="M10.369 1.168c-9.395 2.537-13.006 11.241-4.574 14.168h-0.068c0.040 0.005 0.080 0.012 0.119 0.018 0.562 0.192 1.177 0.358 1.846 0.496 3.144 1.235 5.417 4.227 5.602 7.15-2.095 1.444-3.717 3.928-3.717 3.928l1.643 2.418-2.576 1.467h5.123c-2.527-2.527-0.735-5.369 2.258-5.369 3.034 0 4.622 3.007 2.26 5.369h5.070l-2.523-1.467 1.643-2.418s-1.648-2.525-3.768-3.963c0.2-2.913 2.469-5.885 5.6-7.115 0.669-0.138 1.284-0.304 1.846-0.496 0.040-0.006 0.080-0.012 0.119-0.018h-0.070c8.433-2.926 4.823-11.631-4.572-14.168-2.545 2.461 0.409 6.355 2.727 3.555 2.306 4.318 0.538 7.974-4.518 5.213-0.742 1.531-2.138 2.586-3.793 2.586-1.669 0-3.073-1.073-3.811-2.625-5.111 2.836-6.907-0.836-4.59-5.174 2.318 2.8 5.272-1.094 2.727-3.555zM16.044 3.413c-1.712 0-3.208 1.722-3.208 3.976s1.496 3.937 3.208 3.937c1.712 0 3.208-1.684 3.208-3.937s-1.496-3.976-3.208-3.976z"></path>
</symbol>
<symbol id="icon-edit" viewBox="0 0 32 32">
<title>edit</title>
<path d="M25.836 4.369l-4.777 7.598-0.516-2.043-1.889 5.561 3.916-1.836 0.014 1.84 7.939-3.184-4.426-0.123 2.986-4.293-4.592 2.453 1.344-5.973zM13.139 6.381l-2 0.9 1.055 3.479-11.113 5.002 0.785 1.742 11.113-5.004 1.9 3.092 3.082-1.387-1.334-4.396-3.488-3.428zM12.35 16.674v1.272h-5.557c1 2.425 3.202 4.089 5.557 4.642v2.061h3.66c-0.757 1.908-2.094 3.48-3.654 4.85h-1.592v1.168h17.771v-1.168h-1.713c-1.796-1.368-3.128-2.939-3.852-4.85h3.979v-1.824c1.234-0.437 2.469-1.219 3.703-2.293-1.238-1.095-2.452-1.703-3.703-1.996v-1.861h-14.6z"></path>
</symbol>
<symbol id="icon-left" viewBox="0 0 32 32">
<title>left</title>
<path d="M18.076 4.048c-0 0-0 0-0.001 0-0.094 0-0.184 0.013-0.27 0.037l0.007-0.002c-0.528 0.143-0.867 0.697-0.911 1.375l1.611 0.375-1.368 0.866c0.308 0.654 0.854 1.081 1.396 1.081 0 0 0 0 0.001 0 0.094 0 0.184-0.013 0.27-0.037l-0.007 0.002c0.73-0.197 1.099-1.178 0.825-2.188-0.242-0.891-0.902-1.51-1.554-1.51zM19.345 3.458c-0.165-0.115-0.355-0.213-0.557-0.285l-0.017-0.005c0.342-0.264 0.754-0.551 0.994-0.608 1.738-0.409 1.771 2.151 3.067 0.959-1.048 1.91-2.21-0.761-3.488-0.060zM15.97 10.68c0.402-0.89 1.45-1.285 2.34-0.881l-1.459 3.222c-0.89-0.402-1.286-1.451-0.883-2.341zM20.315 12.867l1.358-0.416 3.809 1.938-0.448 0.879zM18.447 8.779h0.096c0.177 0 0.354-0.023 0.525-0.069 0.35-0.098 0.651-0.276 0.892-0.515l-0 0 1.218 3.361-2.981 0.914 0.668-1.474 0.875-0.165-0.606-0.438 0.501-1.094s-1.095-0.489-1.188-0.521zM26.738 17.717c4.045-2.886-2.625-6.082 2.941-6.617-3.704 1.661 3.089 2.801 0.641 6.107-0.468 0.632-2.172 1.559-3.102 2.035-0.083-0.569-0.252-1.082-0.494-1.551l0.013 0.027zM18.438 13.763l-0.144-0.276 0.643-0.197 3.119 1.587-4.291 1.654 3.021 2.506-2.539 1.659 0.406-1.496-2.838-3.063zM17.58 8.638c-0.306 0-0.61 0.051-0.899 0.151l-2.612-1.326c0.67-0.139 1.44-0.219 2.228-0.219h0.001c0.355 0.688 0.897 1.187 1.511 1.407-0.076-0.006-0.152-0.010-0.228-0.010zM6.205 16.411h0.259c0.336 0 0.71-0.013 1.111-0.039l-0.791 1.125-1.563-0.458s0.071-0.284 0.171-0.702c0.242 0.045 0.524 0.072 0.811 0.077l0.004 0zM14.891 13.513c-0.865-1.431-2.922-4.171-6-4.171-1.049 0-2.218 0.319-3.5 1.116l0.688 1.239-0.013 1.371c0.027 0.203-0.213 1.313-0.442 2.306 0.416 0.072 1.438 0.063 2.699-0.063l0.355-0.506c1.010-0.597 1.797-0.985 1.797-0.985s-0.057 0.486-0.076 1.202c1.441-0.261 2.928-0.667 4.053-1.258 0.177-0.090 0.322-0.174 0.461-0.264l-0.020 0.012zM7.385 12.364c0 0.292-0.353 0.439-0.56 0.232s-0.060-0.56 0.232-0.56c0.181 0 0.328 0.147 0.328 0.328v0zM15.675 9.401c-0.239 0.226-0.436 0.493-0.582 0.791l-0.007 0.016-13.951-7.713v-0.587zM10.914 19.033c-0.352-0.92-0.48-2.036-0.512-3 1.18-0.202 2.21-0.467 3.206-0.808l-0.143 0.043c0.721-0.242 1.343-0.534 1.925-0.887l-0.042 0.024-0.861 6.041 8.063 1.071 0.649-5.441c0.266 0.111 0.528 0.227 0.784 0.352 3.676 1.793 1.841 6.011 1.841 6.011l1.563 3.076-1.882 3.397v1.176h-2.119l0.984-1.427 0.905-3.286-3.054-2.9c-1.743 0.079-6.402-0.718-8.408-1.063l-5.188 0.284-1.43 1.831 1.053 0.784-1.847 0.869-0.586-1.153 1.202-3.080zM14.115 10.838l0.707 0.357c-0.005 0.061-0.008 0.133-0.008 0.205 0 0.090 0.004 0.18 0.013 0.268l-0.001-0.011c-0.216-0.27-0.452-0.547-0.711-0.819zM12.135 25.333l0.313-2.84 1.306-0.071c0.387 0.066 0.819 0.139 1.277 0.214l-1.341 2.984-1.105 3.41 0.039 1.063h-1.979l0.603-1.114zM20.908 26.549l-2.299-3.364c1.333 0.184 3.207 0.317 3.217 0.317l-0.183 0.476 1.194 2.617-2.938 2.754v0.734h-1.791l0.709-0.808z"></path>
</symbol>
<symbol id="icon-qwest" viewBox="0 0 32 32">
<title>qwest</title>
<path d="M15.16 1.728c-0.629 0.002-1.258 0.013-1.887 0.031l0.381 4.1-3.818-3.91c-1.954 0.161-3.906 0.416-5.859 0.783l2.141 1.775-3.004-0.035c2.197 6.26 0.433 11.411-0.019 18.25l5.984 6.615c0.625-0.083 1.241-0.151 1.848-0.209l1.346-2.635 1.158 1.803 2.594-2.1 0.051 2.693c5.184-0.015 9.858 0.569 14.73 0.488-1.759-4.563-1.946-8.973-1.992-13.072l-2.078-1.195 2.043-2.117c-0.027-1.333-0.084-2.625-0.227-3.871l-3.59 0.045 3.141-2.604c-0.24-0.967-0.566-1.9-1.008-2.795l-1.846-1.494c-3.363-0.343-6.725-0.558-10.088-0.547zM18.83 4.039l1.981 4.641 1.402-1.965 0.457 0.774 2.541 4.32-1.008 0.592-2.086-3.543-2.652 3.713-0.949-0.68 1.5-2.1-1.373-3.213-1.535 2.504 0.748 1.414-1.033 0.547-1.141-2.156-1.553 3.637-1.074-0.459 2.514-5.888 0.904 1.709 1.766-2.883 0.592-0.963zM6.652 7.555h0.006l0.008 0.002 0.006 0.002 0.299 0.070 0.006 0.002 0.008 0.002 0.299 0.078 0.268 0.078 0.008 0.002 0.008 0.002 0.256 0.082 0.008 0.002 0.008 0.004 0.014 0.004-0.365 1.033-0.021 0.068h-0.002l-0.014-0.004-0.223-0.072-0.016-0.004-0.238-0.070-0.016-0.004-0.254-0.066-0.014-0.004-0.271-0.063-0.006-0.002-0.008-0.002 0.072-0.307 0.176-0.834zM9.020 8.391l0.166 0.096 0.012 0.006 0.010 0.008 0.166 0.104 0.010 0.008 0.012 0.008 0.152 0.105 0.012 0.008 0.012 0.010 0.143 0.109 0.012 0.008 0.010 0.010 0.133 0.111 0.010 0.010 0.012 0.010 0.121 0.115 0.012 0.010 0.010 0.012 0.053 0.055-0.846 0.805-0.029-0.031-0.023-0.021-0.076-0.072-0.006-0.006-0.016-0.014-0.088-0.074-0.010-0.008-0.012-0.010-0.098-0.076-0.012-0.008-0.010-0.008-0.111-0.076-0.020-0.012-0.002-0.002-0.143-0.090-0.146-0.084 0.582-1.014zM10.813 10.414l0.016 0.053 0.004 0.016 0.006 0.016 0.031 0.129 0.004 0.014 0.002 0.016 0.025 0.129 0.002 0.016 0.004 0.016 0.018 0.129 0.002 0.014v0.016l0.012 0.129 0.002 0.014v0.014l0.006 0.129v0.17l-0.002 0.012-0.006 0.129v0.014l-0.002 0.012-0.012 0.129v0.010l-0.002 0.012-0.010 0.072-1.158-0.15 0.008-0.049 0.002-0.021 0.008-0.084v-0.004l0.002-0.020 0.004-0.105v-0.105l-0.004-0.074-0.008-0.1-0.018-0.129-0.020-0.098-0.023-0.088-0.002-0.010-0.008-0.021 1.117-0.346zM9.484 12.647l1.080 0.441-0.068 0.166-0.004 0.010-0.004 0.010-0.102 0.227-0.004 0.008-0.004 0.008-0.105 0.217-0.002 0.006-0.004 0.006-0.105 0.209-0.004 0.004-0.002 0.004-0.105 0.197-0.002 0.004-0.002 0.004-0.020 0.035-1.021-0.566 0.016-0.027 0.004-0.008 0.096-0.18 0.006-0.010 0.096-0.186 0.006-0.014 0.092-0.189 0.008-0.016 0.088-0.193 0.008-0.020 0.061-0.146zM8.455 14.777l1.106 0.377-0.010 0.025-0.002 0.004-0.064 0.219-0.057 0.215-0.002 0.014-0.004 0.012-0.041 0.207-0.027 0.168-0.002 0.014-0.002 0.016-0.012 0.119-1.162-0.125 0.018-0.148v-0.016l0.002-0.014 0.037-0.225 0.002-0.014 0.002-0.012 0.049-0.232 0.002-0.014 0.004-0.012 0.061-0.24 0.002-0.012 0.004-0.012 0.074-0.246 0.004-0.012 0.004-0.012 0.016-0.045zM21.445 15.863l0.055 0.006h0.014l0.012 0.002 0.119 0.016 0.014 0.002 0.012 0.002 0.117 0.021 0.012 0.002 0.014 0.002 0.113 0.025 0.014 0.004 0.012 0.004 0.111 0.029 0.014 0.004 0.012 0.004 0.108 0.035 0.027 0.008 0.103 0.039 0.014 0.006 0.012 0.006 0.115 0.049 0.012 0.006 0.1 0.047 0.012 0.008 0.014 0.006 0.096 0.053 0.012 0.006 0.012 0.008 0.076 0.047-0.609 0.996-0.070-0.043-0.006-0.004-0.047-0.025-0.025-0.012-0.047-0.025-0.012-0.004-0.014-0.008-0.078-0.031-0.053-0.020-0.080-0.027-0.018-0.004-0.010-0.004-0.059-0.016-0.021-0.004-0.004-0.002-0.063-0.014-0.092-0.017-0.014-0.002-0.012-0.002-0.090-0.012h-0.004l-0.031-0.002 0.103-1.164zM20.119 15.957l0.148 0.742 0.092 0.402-0.012 0.002-0.125 0.027-0.010 0.002-0.006 0.002-0.125 0.033-0.158 0.045-0.135 0.043-0.014 0.004-0.139 0.047-0.014 0.006-0.145 0.053-0.012 0.004-0.135 0.053-0.426-1.088 0.146-0.057 0.006-0.004 0.008-0.002 0.168-0.061 0.006-0.004 0.008-0.002 0.164-0.055 0.008-0.004 0.006-0.002 0.162-0.051 0.008-0.002 0.006-0.002 0.16-0.045 0.006-0.002 0.008-0.002 0.156-0.041 0.008-0.002 0.008-0.002 0.152-0.033 0.008-0.002 0.008-0.002 0.004-0.002zM17.75 16.947l0.686 0.947-0.108 0.076-0.006 0.006-0.006 0.004-0.203 0.139-0.008 0.004-0.213 0.139-0.205 0.125-0.006 0.004-0.008 0.004-0.207 0.119-0.006 0.004-0.008 0.004-0.066 0.037-0.559-1.025 0.055-0.031 0.012-0.006 0.197-0.113 0.18-0.109 0.012-0.008 0.176-0.115 0.014-0.008 0.183-0.127 0.094-0.068zM9.404 17.117l0.008 0.027 0.004 0.017 0.029 0.086 0.004 0.008 0.057 0.137 0.004 0.012 0.037 0.074 0.008 0.014 0.053 0.094 0.008 0.012 0.061 0.090 0.006 0.008 0.068 0.088 0.006 0.006 0.080 0.088-0.863 0.787-0.086-0.094-0.014-0.014-0.012-0.016-0.101-0.127-0.012-0.016-0.012-0.017-0.092-0.135-0.012-0.016-0.010-0.017-0.084-0.143-0.010-0.017-0.010-0.018-0.074-0.148-0.008-0.020-0.008-0.017-0.064-0.156-0.008-0.020-0.006-0.019-0.055-0.162-0.006-0.020-0.006-0.020-0.012-0.045 1.131-0.291zM23.799 17.324l0.053 0.082 0.004 0.010 0.006 0.008 0.061 0.106 0.004 0.008 0.006 0.008 0.059 0.109 0.004 0.008 0.004 0.010 0.057 0.111 0.004 0.008 0.004 0.008 0.053 0.117 0.004 0.008 0.004 0.006 0.051 0.121 0.002 0.008 0.004 0.006 0.049 0.123 0.002 0.008 0.004 0.008 0.047 0.127 0.002 0.006 0.002 0.006 0.045 0.131 0.002 0.006 0.002 0.008 0.010 0.031-1.113 0.352-0.006-0.020-0.006-0.014-0.035-0.103-0.004-0.014-0.037-0.1-0.006-0.014-0.037-0.096-0.006-0.014-0.039-0.090-0.006-0.016-0.039-0.086-0.008-0.016-0.049-0.098-0.041-0.076-0.010-0.016-0.041-0.072-0.012-0.018-0.041-0.066 0.99-0.619zM15.836 18.006l0.436 1.084-0.188 0.076-0.006 0.002-0.006 0.002-0.225 0.084-0.006 0.004-0.008 0.002-0.23 0.080-0.008 0.002-0.238 0.078-0.229 0.068-0.006 0.002-0.006 0.002-0.012 0.002-0.31-1.125 0.012-0.004 0.203-0.061 0.012-0.004 0.201-0.064 0.014-0.004 0.213-0.076v0.002l0.199-0.076 0.014-0.006 0.174-0.070zM10.602 18.391l0.016 0.008 0.004 0.002 0.139 0.055 0.023 0.008 0.123 0.043 0.016 0.004 0.010 0.004 0.131 0.037 0.008 0.002 0.014 0.004 0.16 0.039 0.145 0.031 0.012 0.002 0.010 0.002 0.172 0.027-0.092 0.545-0.006 0.031-0.076 0.58-0.012-0.002-0.010-0.002-0.213-0.037-0.199-0.041-0.012-0.002-0.184-0.045-0.010-0.004-0.012-0.004-0.178-0.051-0.012-0.004-0.014-0.004-0.184-0.063-0.014-0.006-0.166-0.064-0.012-0.006-0.055-0.023 0.477-1.067zM13.723 18.611l0.178 1.154-0.209 0.031-0.008 0.002h-0.008l-0.223 0.029h-0.008l-0.006 0.002-0.223 0.022-0.008 0.002h-0.008l-0.219 0.018h-0.016l-0.217 0.012h-0.016l-0.072 0.002-0.025-1.168 0.057-0.002h0.016l0.186-0.010 0.203-0.014v-0.002l0.207-0.019 0.012-0.002h0.004l0.193-0.025 0.008-0.002h0.006l0.195-0.029zM24.629 19.736l0.023 0.148 0.002 0.008v0.010l0.045 0.326v0.008l0.002 0.008 0.035 0.338v0.014l0.029 0.348-1.164 0.094-0.027-0.334-0.002-0.014-0.031-0.307v-0.004l-0.002-0.014-0.039-0.291-0.002-0.018-0.023-0.133 1.154-0.188zM20.406 21.662c1.181 0.216 2.807 1.012 4.305 2.117 0.466-0.615 0.902-1.275 1.332-1.943l1.879 0.811c-0.293 0.763-0.937 1.595-1.785 2.324 1.064 1.010 1.929 2.157 2.313 3.309-0.863-1.132-1.942-1.983-3.142-2.676-1.462 0.99-3.293 1.621-4.977 1.277 1.432-0.274 2.54-1.035 3.488-2.037-1.029-0.469-2.112-0.867-3.203-1.256l-0.209-1.926z"></path>
</symbol>
<symbol id="icon-right" viewBox="0 0 32 32">
<title>right</title>
<path d="M13.924 4.048c0 0 0 0 0.001 0 0.094 0 0.184 0.013 0.27 0.037l-0.007-0.002c0.528 0.143 0.867 0.697 0.911 1.375l-1.611 0.375 1.368 0.866c-0.308 0.654-0.854 1.081-1.396 1.081-0 0-0 0-0.001 0-0.094 0-0.184-0.013-0.27-0.037l0.007 0.002c-0.73-0.197-1.099-1.178-0.825-2.188 0.242-0.891 0.902-1.51 1.554-1.51zM12.655 3.458c0.165-0.115 0.355-0.213 0.557-0.285l0.017-0.005c-0.342-0.264-0.754-0.551-0.994-0.608-1.738-0.409-1.771 2.151-3.067 0.959 1.048 1.91 2.21-0.761 3.488-0.060zM16.030 10.68c-0.402-0.89-1.45-1.285-2.34-0.881l1.459 3.222c0.89-0.402 1.286-1.451 0.882-2.341zM11.685 12.867l-1.357-0.416-3.809 1.938 0.447 0.879zM13.553 8.779h-0.096c-0.177 0-0.354-0.023-0.525-0.069-0.35-0.098-0.651-0.276-0.892-0.515l0 0-1.218 3.361 2.981 0.914-0.668-1.474-0.875-0.165 0.606-0.438-0.501-1.094s1.095-0.489 1.188-0.521zM5.262 17.717c-4.045-2.886 2.625-6.082-2.941-6.617 3.704 1.661-3.089 2.801-0.641 6.107 0.468 0.632 2.172 1.559 3.103 2.035 0.083-0.569 0.252-1.082 0.494-1.551l-0.013 0.027zM13.562 13.763l0.144-0.276-0.643-0.197-3.119 1.587 4.291 1.654-3.021 2.506 2.539 1.659-0.406-1.496 2.838-3.063zM14.42 8.638c0.306 0 0.61 0.051 0.899 0.151l2.612-1.326c-0.67-0.139-1.44-0.219-2.228-0.219h-0.001c-0.355 0.688-0.897 1.187-1.511 1.407 0.076-0.006 0.152-0.010 0.228-0.010zM25.795 16.411h-0.259c-0.336 0-0.71-0.013-1.111-0.039l0.791 1.125 1.563-0.458s-0.071-0.284-0.171-0.702c-0.242 0.045-0.524 0.072-0.811 0.077l-0.004 0zM17.109 13.513c0.865-1.431 2.922-4.171 6-4.171 1.049 0 2.218 0.319 3.5 1.116l-0.688 1.239 0.013 1.371c-0.027 0.203 0.212 1.313 0.442 2.306-0.416 0.072-1.438 0.063-2.699-0.063l-0.355-0.506c-1.010-0.597-1.797-0.985-1.797-0.985s0.057 0.486 0.076 1.202c-1.441-0.261-2.928-0.667-4.053-1.258-0.177-0.090-0.322-0.174-0.461-0.264l0.020 0.012zM24.615 12.364c0 0.292 0.353 0.439 0.56 0.232s0.060-0.56-0.232-0.56c-0.181 0-0.328 0.147-0.328 0.328v0zM16.325 9.401c0.239 0.226 0.436 0.493 0.582 0.791l0.007 0.016 13.951-7.713v-0.587zM21.086 19.033c0.352-0.92 0.48-2.036 0.512-3-1.18-0.202-2.21-0.467-3.206-0.808l0.143 0.043c-0.721-0.242-1.343-0.534-1.924-0.887l0.042 0.024 0.861 6.041-8.063 1.071-0.649-5.441c-0.266 0.111-0.528 0.227-0.784 0.352-3.676 1.793-1.841 6.011-1.841 6.011l-1.563 3.076 1.882 3.397v1.176h2.119l-0.984-1.427-0.905-3.286 3.054-2.9c1.743 0.079 6.403-0.718 8.408-1.063l5.188 0.284 1.43 1.831-1.053 0.784 1.847 0.869 0.586-1.153-1.202-3.080zM17.885 10.838l-0.707 0.357c0.005 0.061 0.008 0.133 0.008 0.205 0 0.090-0.004 0.18-0.013 0.268l0.001-0.011c0.216-0.27 0.452-0.547 0.711-0.819zM19.865 25.333l-0.313-2.84-1.306-0.071c-0.387 0.066-0.819 0.139-1.277 0.214l1.341 2.984 1.105 3.41-0.039 1.063h1.979l-0.603-1.114zM11.092 26.549l2.299-3.364c-1.333 0.184-3.207 0.317-3.217 0.317l0.183 0.476-1.194 2.617 2.938 2.754v0.734h1.791l-0.709-0.808z"></path>
</symbol>
<symbol id="icon-save" viewBox="0 0 32 32">
<title>save</title>
<path d="M31.059 0.879c-5.946 0.219-10.769 1.505-14.455 3.488l-1.842 3.080-0.31-1.756c-0.658 0.463-1.27 0.951-1.832 1.463l-0.918 2.816-0.315-1.572c-2.541 2.844-3.776 6.242-3.684 9.744 2.955-5.854 8.275-10.795 13.248-13.822l0.607 0.998c-4.707 2.865-9.774 7.575-12.637 13.016h0.76c1.236-0.751 2.447-1.679 3.65-2.715l-1.893 0.1 3.389-1.443c2.93-2.727 5.842-5.936 8.957-8.643l-1.529-0.324 3.531-1.314c1.678-1.28 3.425-2.365 5.271-3.115zM3.721 19.502v1.901h8.404v-1.901h-8.404zM4.994 22.57l-2.041 1.793-1.393 5.31 0.908 0.992h11.076l0.91-0.992-1.393-5.31-1.932-1.793h-6.137z"></path>
</symbol>
<symbol id="icon-shild" viewBox="0 0 32 32">
<title>shild</title>
<path d="M16.010 1.383l-12.242 3.77c0.027 6.766 0.682 12.529 2.516 16.902 0.833 1.986 1.897 3.689 3.258 5.092 0.254-0.7 0.522-1.411 0.801-2.129-1.028-1.143-1.84-2.503-2.459-4.047-1.453-3.622-1.916-8.241-1.916-13.607l-0.006-0.449 0.41-0.107 9.024-2.902c0.367-0.784 0.744-1.571 1.133-2.363l-0.518-0.158zM19.301 2.395l-1.117 2.070 1.457 0.469c0.369-0.717 0.733-1.422 1.086-2.1l-1.426-0.439zM23.531 3.697c-0.375 0.709-0.751 1.417-1.127 2.125l1.578 0.508c0.413-0.701 0.833-1.404 1.262-2.105l-1.713-0.527zM27.979 5.066l-2.115 3.219c-0.046 4.982-0.482 9.263-1.828 12.668-1.428 3.613-3.945 6.226-7.957 7.414l-0.166 0.051-0.166-0.051c-2.012-0.596-3.652-1.581-4.969-2.891-0.403 0.564-0.811 1.124-1.227 1.678 1.665 1.713 3.775 2.98 6.455 3.766 5.035-1.473 8.026-4.481 9.844-8.881 1.799-4.355 2.384-10.099 2.408-16.887l-0.279-0.086zM14.729 5.344l-7.588 2.441c0.025 5.112 0.507 9.461 1.826 12.75 0.028 0.071 0.057 0.141 0.086 0.211 1.533-5.389 3.386-10.355 5.676-15.402zM17.619 5.508l-8.416 15.586c0.451 1.012 0.984 1.916 1.617 2.709 2.387-5.952 5.487-12.345 8.281-17.818l-1.483-0.477zM21.85 6.869c-3.23 6.073-6.532 12.089-10.398 17.653 1.165 1.206 2.625 2.101 4.461 2.672 3.599-1.115 5.727-3.356 7.037-6.67 1.092-2.763 1.567-6.284 1.703-10.396l-9.928 15.113c2.302-5.973 5.209-11.927 8.654-17.879l-1.529-0.492z"></path>
</symbol>
<symbol id="icon-sort" viewBox="0 0 32 32">
<title>sort</title>
<path d="M21.362 5.969l-17.266 4.43 7.99 3.632 17.252-4.54-7.976-3.522zM21.263 7.155l4.679 2.066-4.534 1.193-4.829-2.057 4.684-1.202zM30.189 10.43l-18.204 4.79-0.179-0.081-9.023-4.010c-0.349-0.175-0.501-0.124-0.673 0.007s-0.345 0.43-0.392 0.81c-0.095 0.76 0.226 1.724 1.495 2.147l0.026 0.009 8.844 3.931 10.827-2.849v-1.904l4.75-1.147v1.8l2.636-0.694c-0.273-0.877-0.333-1.822-0.108-2.808zM26.536 13.56l-2.5 0.604v6.449l1.372-1.372 1.128 0.781v-6.462zM30.189 14.43l-2.528 0.665v2.837l2.636-0.694c-0.273-0.877-0.333-1.822-0.108-2.808zM2.401 15.017c-0.113 0.002-0.199 0.049-0.29 0.119-0.172 0.131-0.345 0.43-0.392 0.81-0.095 0.76 0.226 1.724 1.495 2.147l0.026 0.009 8.844 3.931 10.827-2.849v-2.837l-10.923 2.874-9.164-4.073c-0.128-0.044-0.227-0.083-0.325-0.127l0.024 0.010c-0.035-0.008-0.075-0.013-0.117-0.013-0.002 0-0.004 0-0.006 0h0zM2.824 15.147l0.001 0.001-0.017-0.008 0.016 0.007zM30.189 18.43l-2.528 0.665v2.837l2.636-0.694c-0.273-0.877-0.333-1.822-0.108-2.808zM2.401 19.017c-0.113 0.002-0.199 0.049-0.29 0.119-0.172 0.131-0.345 0.43-0.392 0.81-0.095 0.76 0.226 1.724 1.495 2.147l0.026 0.009 8.844 3.931 10.827-2.849v-2.837l-10.923 2.874-9.164-4.073c-0.128-0.044-0.227-0.083-0.325-0.127l0.024 0.010c-0.035-0.008-0.075-0.013-0.117-0.013-0.002 0-0.004 0-0.006 0h0zM2.824 19.147l0.001 0-0.017-0.008 0.016 0.007zM25.539 20.701l-2.429 2.429 4.302-1.132-1.873-1.297z"></path>
</symbol>
<symbol id="icon-sword" viewBox="0 0 32 32">
<title>sword</title>
<path d="M9.145 0.384l5.488 8.045-3.804-2.495 2.183 3.929-10.602-6.86c2.513 4.458 5.128 8.432 8.077 11.985l8.51-8.51c-2.823-2.316-6.042-4.333-9.851-6.095zM30.842 0.978l-7.53 2.879-13.412 13.381 0.826 0.826 13.235-13.204 4.88-1.866-1.838 4.91-13.234 13.203 0.826 0.826 13.413-13.382 2.834-7.573zM25.449 5.571l-16.247 16.247c-0.747-1.082-0.73-2.528 0.016-3.61l-1.954-1.953c-1.79 2.177-1.787 5.319 0.010 7.491l-4.003 4.003c-0.158-0.059-0.324-0.089-0.49-0.089-0.359 0-0.717 0.139-0.994 0.415-0.554 0.554-0.554 1.435 0 1.989s1.435 0.554 1.989 0c0.407-0.407 0.515-0.99 0.324-1.491l4.004-4.003c2.174 1.777 5.32 1.791 7.489 0.013l-1.954-1.954c-1.080 0.74-2.522 0.744-3.605 0.011l16.242-16.242-0.826-0.826zM25.311 12.884l-8.55 8.55c3.456 3.004 7.39 5.634 12.029 7.951l-3.867-7.421 6.424 4.303-7.359-10.29 5.426 2.682c-1.306-2.065-2.658-3.986-4.103-5.774z"></path>
</symbol>
</defs>
</svg>
